<?xml version="1.0" encoding="UTF-8"?>
<svg width="128" height="128" viewBox="0 0 128 128" xmlns="http://www.w3.org/2000/svg">
  <defs>
    <linearGradient id="bgGradient" x1="0%" y1="0%" x2="100%" y2="100%">
      <stop offset="0%" style="stop-color:#667eea;stop-opacity:1" />
      <stop offset="100%" style="stop-color:#764ba2;stop-opacity:1" />
    </linearGradient>
    <linearGradient id="skinGradient" x1="0%" y1="0%" x2="100%" y2="100%">
      <stop offset="0%" style="stop-color:#fdbcb4;stop-opacity:1" />
      <stop offset="100%" style="stop-color:#f7a693;stop-opacity:1" />
    </linearGradient>
  </defs>
  
  <!-- Background Circle -->
  <circle cx="64" cy="64" r="60" fill="url(#bgGradient)" stroke="#4c51bf" stroke-width="4"/>
  
  <!-- Left Boy -->
  <!-- Head -->
  <circle cx="45" cy="35" r="12" fill="url(#skinGradient)" stroke="#e6917d" stroke-width="1"/>
  <!-- Hair -->
  <path d="M33 30 Q45 22 57 30 Q52 25 45 25 Q38 25 33 30" fill="#8b4513"/>
  <!-- Eyes -->
  <circle cx="41" cy="33" r="1.5" fill="#2d3748"/>
  <circle cx="49" cy="33" r="1.5" fill="#2d3748"/>
  <!-- Smile -->
  <path d="M40 38 Q45 42 50 38" stroke="#2d3748" stroke-width="1" fill="none"/>
  
  <!-- Body -->
  <rect x="38" y="47" width="14" height="20" rx="7" fill="#4299e1" stroke="#2b6cb0" stroke-width="1"/>
  
  <!-- Left Arm -->
  <rect x="30" y="50" width="8" height="12" rx="4" fill="#4299e1" stroke="#2b6cb0" stroke-width="1"/>
  <!-- Left Hand -->
  <circle cx="34" cy="66" r="4" fill="url(#skinGradient)" stroke="#e6917d" stroke-width="1"/>
  
  <!-- Right Arm extending to center -->
  <rect x="52" y="50" width="18" height="6" rx="3" fill="#4299e1" stroke="#2b6cb0" stroke-width="1"/>
  <!-- Right Hand (connecting) -->
  <circle cx="64" cy="62" r="4" fill="url(#skinGradient)" stroke="#e6917d" stroke-width="1"/>
  
  <!-- Legs -->
  <rect x="40" y="67" width="5" height="18" rx="2.5" fill="#2c5aa0" stroke="#2a5298" stroke-width="1"/>
  <rect x="47" y="67" width="5" height="18" rx="2.5" fill="#2c5aa0" stroke="#2a5298" stroke-width="1"/>
  
  <!-- Shoes -->
  <ellipse cx="42.5" cy="87" rx="4" ry="2" fill="#1a202c"/>
  <ellipse cx="49.5" cy="87" rx="4" ry="2" fill="#1a202c"/>
  
  <!-- Right Boy -->
  <!-- Head -->
  <circle cx="83" cy="35" r="12" fill="url(#skinGradient)" stroke="#e6917d" stroke-width="1"/>
  <!-- Hair -->
  <path d="M71 30 Q83 22 95 30 Q90 25 83 25 Q76 25 71 30" fill="#654321"/>
  <!-- Eyes -->
  <circle cx="79" cy="33" r="1.5" fill="#2d3748"/>
  <circle cx="87" cy="33" r="1.5" fill="#2d3748"/>
  <!-- Smile -->
  <path d="M78 38 Q83 42 88 38" stroke="#2d3748" stroke-width="1" fill="none"/>
  
  <!-- Body -->
  <rect x="76" y="47" width="14" height="20" rx="7" fill="#48bb78" stroke="#38a169" stroke-width="1"/>
  
  <!-- Left Arm extending to center -->
  <rect x="58" y="50" width="18" height="6" rx="3" fill="#48bb78" stroke="#38a169" stroke-width="1"/>
  
  <!-- Right Arm -->
  <rect x="90" y="50" width="8" height="12" rx="4" fill="#48bb78" stroke="#38a169" stroke-width="1"/>
  <!-- Right Hand -->
  <circle cx="94" cy="66" r="4" fill="url(#skinGradient)" stroke="#e6917d" stroke-width="1"/>
  
  <!-- Legs -->
  <rect x="78" y="67" width="5" height="18" rx="2.5" fill="#2f855a" stroke="#276749" stroke-width="1"/>
  <rect x="85" y="67" width="5" height="18" rx="2.5" fill="#2f855a" stroke="#276749" stroke-width="1"/>
  
  <!-- Shoes -->
  <ellipse cx="80.5" cy="87" rx="4" ry="2" fill="#1a202c"/>
  <ellipse cx="87.5" cy="87" rx="4" ry="2" fill="#1a202c"/>
  
  <!-- Connected Hands (emphasis) -->
  <circle cx="64" cy="62" r="5" fill="none" stroke="#ffd700" stroke-width="2" opacity="0.8"/>
  
  <!-- Hearts above -->
  <path d="M50 20 C50 17, 53 17, 54 20 C54 17, 57 17, 57 20 C57 23, 54 26, 50 26 C46 23, 50 20, 50 20" fill="#e53e3e" opacity="0.8"/>
  <path d="M71 20 C71 17, 74 17, 75 20 C75 17, 78 17, 78 20 C78 23, 75 26, 71 26 C67 23, 71 20, 71 20" fill="#e53e3e" opacity="0.8"/>
  
  <!-- Text at bottom -->
  <text x="64" y="110" text-anchor="middle" font-family="Arial, sans-serif" font-size="10" font-weight="bold" fill="white">OS IRMÃOS</text>
</svg>